<svg id="info" xmlns="http://www.w3.org/2000/svg" width="13.228" height="30" viewBox="0 0 13.228 30">
  <defs>
    <style>
      .cls-1 {
        fill: #e4a322;
      }
    </style>
  </defs>
  <g id="Grupo_681" data-name="Grupo 681" transform="translate(-1 9)">
    <g id="Grupo_836" data-name="Grupo 836" transform="translate(1 -9)">
      <path id="Trazado_2069" data-name="Trazado 2069" class="cls-1" d="M261.166,405.685c-.136.6-.249,1.126-.38,1.648a.408.408,0,0,1-.185.254,20.008,20.008,0,0,1-4.084,1.5,6.706,6.706,0,0,1-3.586-.277,4.066,4.066,0,0,1-2.57-4.044,20.13,20.13,0,0,1,.851-4.864c.5-1.978,1-3.957,1.45-5.949a7.209,7.209,0,0,0,.124-1.776c-.032-1.115-.49-1.589-1.508-1.685a4.828,4.828,0,0,0-2.249.324c-.193.076-.388.142-.662.241.146-.636.275-1.218.417-1.8.014-.058.1-.107.165-.134a17.246,17.246,0,0,1,4.672-1.549,5.921,5.921,0,0,1,3.109.388,4.039,4.039,0,0,1,2.367,3.917,18.217,18.217,0,0,1-.74,4.523c-.515,1.932-1.022,3.869-1.451,5.825a10.071,10.071,0,0,0-.2,2.555c.038.892.462,1.242,1.28,1.4a5.238,5.238,0,0,0,2.917-.412C260.971,405.751,261.038,405.729,261.166,405.685Z" transform="translate(-248.367 -379.204)"/>
      <path id="Trazado_2070" data-name="Trazado 2070" class="cls-1" d="M286.144,328.207a4.025,4.025,0,0,1,4.02,3.246,3.848,3.848,0,0,1-3.346,4.356,4.428,4.428,0,0,1-2.63-.409,3.706,3.706,0,0,1-2.1-3.892,3.969,3.969,0,0,1,3.107-3.182C285.511,328.265,285.829,328.245,286.144,328.207Z" transform="translate(-276.978 -328.207)"/>
    </g>
  </g>
</svg>
